<svg xmlns="http://www.w3.org/2000/svg" width="1500" height="1500" style=""><rect id="backgroundrect" width="100%" height="100%" x="0" y="0" fill="none" stroke="none" style="" class=""/><g class="currentLayer" style=""><title>Layer 1</title><g class="" transform="rotate(0.2165135145187378 1210.0003662109407,1017.0000610351638) " id="svg_338"><path d="M-74.14885456789938,-8.091100999721089 L90.8503629169967,-36.665068879887926 L379.88347492502146,-96.67040142823828 z" fill="#e8f1fa" stroke="#e8f1fa" stroke-width="1.51" id="svg_1" class=""/><path d="M810.0193660235781,2143.5286803768417 L48.74711431740248,2162.1017594989503 L989.8116168002232,2154.9582675289084 z" fill="#6b80ad" stroke="#6b80ad" stroke-width="1.51" id="svg_2" class=""/><path d="M989.8116168002232,2154.9582675289084 L48.74711431740248,2162.1017594989503 L1151.3970573716388,2164.959156286967 z" fill="#647eab" stroke="#647eab" stroke-width="1.51" id="svg_3" class=""/><path d="M1175.2934957660032,-69.5251319420798 L1295.9136133756513,-85.24081427617156 L1491.6368230818725,-130.9591628844385 z" fill="#accde7" stroke="#accde7" stroke-width="1.51" id="svg_4" class=""/><path d="M748.5713815809269,-80.95471909414651 L1175.2934957660032,-69.5251319420798 L1491.6368230818725,-130.9591628844385 z" fill="#b6d5eb" stroke="#b6d5eb" stroke-width="1.51" id="svg_5" class=""/><path d="M379.88347492502146,-96.67040142823828 L748.5713815809269,-80.95471909414651 L1491.6368230818725,-130.9591628844385 z" fill="#c9e1ef" stroke="#c9e1ef" stroke-width="1.51" id="svg_6" class=""/><path d="M1455.2232026714128,2117.812109284692 L1151.3970573716388,2164.959156286967 L1685.0841815124402,2126.384299648742 z" fill="#32679f" stroke="#32679f" stroke-width="1.51" id="svg_7" class=""/><path d="M1952.4967064017546,-62.38163997203809 L2190.32316470757,-50.95205281997134 L2340.5293489007167,-99.52779821625496 z" fill="#8fa3cf" stroke="#8fa3cf" stroke-width="1.51" id="svg_8" class=""/><path d="M1790.9112658303388,-122.38697252038844 L1952.4967064017546,-62.38163997203809 L2340.5293489007167,-99.52779821625496 z" fill="#93aad4" stroke="#93aad4" stroke-width="1.51" id="svg_9" class=""/><path d="M2213.0816774641075,2077.808554252458 L2038.9790548765968,2082.094649434483 L2367.8395642085616,2123.526902860725 z" fill="#0a478c" stroke="#0a478c" stroke-width="1.51" id="svg_10" class=""/><path d="M2038.9790548765968,2082.094649434483 L1685.0841815124402,2126.384299648742 L2367.8395642085616,2123.526902860725 z" fill="#124e92" stroke="#124e92" stroke-width="1.51" id="svg_11" class=""/><path d="M2367.8395642085616,2123.526902860725 L1685.0841815124402,2126.384299648742 L2445.218507580789,2143.5286803768417 z" fill="#0c478b" stroke="#0c478b" stroke-width="1.51" id="svg_12" class=""/><path d="M1685.0841815124402,2126.384299648742 L1151.3970573716388,2164.959156286967 L2445.218507580789,2143.5286803768417 z" fill="#1f5897" stroke="#1f5897" stroke-width="1.51" id="svg_13" class=""/><path d="M1491.6368230818725,-130.9591628844385 L1790.9112658303388,-122.38697252038844 L2503.2527151099594,-126.67306770241345 z" fill="#97b1d8" stroke="#97b1d8" stroke-width="1.51" id="svg_16" class=""/><path d="M1790.9112658303388,-122.38697252038844 L2340.5293489007167,-99.52779821625496 L2503.2527151099594,-126.67306770241345 z" fill="#90a1ce" stroke="#90a1ce" stroke-width="1.51" id="svg_17" class=""/><path d="M1745.3942403172643,2092.095538192542 L1685.0841815124402,2126.384299648742 L2038.9790548765968,2082.094649434483 z" fill="#1b5899" stroke="#1b5899" stroke-width="1.51" id="svg_51" class=""/><path d="M575.6066846312428,2103.525125344608 L48.74711431740248,2162.1017594989503 L810.0193660235781,2143.5286803768417 z" fill="#7284b1" stroke="#7284b1" stroke-width="1.51" id="svg_78" class=""/><path d="M1491.6368230818725,-130.9591628844385 L1616.8086432428283,-60.95294157802974 L1790.9112658303388,-122.38697252038844 z" fill="#9fbfe0" stroke="#9fbfe0" stroke-width="1.51" id="svg_104" class=""/><path d="M1338.0168619752453,2084.9520462225 L1151.3970573716388,2164.959156286967 L1455.2232026714128,2117.812109284692 z" fill="#3a6ca3" stroke="#3a6ca3" stroke-width="1.51" id="svg_136" class=""/><path d="M748.5713815809269,-80.95471909414651 L1004.6046500919724,-9.519799393729418 L1175.2934957660032,-69.5251319420798 z" fill="#c0dbed" stroke="#c0dbed" stroke-width="1.51" id="svg_166" class=""/><path d="M379.88347492502146,-96.67040142823828 L648.4339254521625,-50.95205281997134 L748.5713815809269,-80.95471909414651 z" fill="#d8e7f4" stroke="#d8e7f4" stroke-width="1.51" id="svg_206" class=""/><path d="M401.50406204373195,2056.378078342333 L48.74711431740248,2162.1017594989503 L575.6066846312428,2103.525125344608 z" fill="#788ab5" stroke="#788ab5" stroke-width="1.51" id="svg_225" class=""/><path d="M255.8495804018927,2060.6641735243584 L48.74711431740248,2162.1017594989503 L401.50406204373195,2056.378078342333 z" fill="#7d8cb8" stroke="#7d8cb8" stroke-width="1.51" id="svg_229" class=""/><path d="M90.8503629169967,-36.665068879887926 L214.8842574401254,-36.665068879887926 L379.88347492502146,-96.67040142823828 z" fill="#e5eff9" stroke="#e5eff9" stroke-width="1.51" id="svg_250" class=""/><g class="" id="svg_339"><path d="M2376.942969311177,1873.5046839092652 L2467.977020337327,1913.5082389414988 L2470.2528716129805,1580.6215131375554 z" fill="#0f4d92" stroke="#0f4d92" stroke-width="1.51" id="svg_14" class=""/><path d="M2357.5982334681203,1642.0555440799137 L2376.942969311177,1873.5046839092652 L2470.2528716129805,1580.6215131375554 z" fill="#135498" stroke="#135498" stroke-width="1.51" id="svg_15" class=""/><path d="M2340.5293489007167,-99.52779821625496 L2296.150249025469,136.20743679512145 L2503.2527151099594,-126.67306770241345 z" fill="#8896c0" stroke="#8896c0" stroke-width="1.51" id="svg_18" class=""/><path d="M2503.2527151099594,-126.67306770241345 L2296.150249025469,136.20743679512145 L2537.3904842447655,219.07194364760528 z" fill="#818fba" stroke="#818fba" stroke-width="1.51" id="svg_19" class=""/><path d="M2431.5633999268666,417.6610204147647 L2485.04590490473,546.2438758755156 L2537.3904842447655,219.07194364760528 z" fill="#7386b3" stroke="#7386b3" stroke-width="1.51" id="svg_20" class=""/><path d="M2485.04590490473,546.2438758755156 L2273.3917362689317,594.8196212717993 L2547.6318149852073,791.9799996449505 z" fill="#6382b1" stroke="#6382b1" stroke-width="1.51" id="svg_21" class=""/><path d="M2273.3917362689317,594.8196212717993 L2260.8745542528363,824.8400627071422 L2547.6318149852073,791.9799996449505 z" fill="#5e83b5" stroke="#5e83b5" stroke-width="1.51" id="svg_22" class=""/><path d="M2260.8745542528363,824.8400627071422 L2496.425161282998,990.5690764121101 L2547.6318149852073,791.9799996449505 z" fill="#5179ad" stroke="#5179ad" stroke-width="1.51" id="svg_23" class=""/><path d="M2537.3904842447655,219.07194364760528 L2485.04590490473,546.2438758755156 L2547.6318149852073,791.9799996449505 z" fill="#6a81ae" stroke="#6a81ae" stroke-width="1.51" id="svg_24" class=""/><path d="M2305.2536541280842,1247.7347873336114 L2450.908135769924,1443.4664673127545 L2551.0455918986877,1267.7365648497284 z" fill="#2a66a1" stroke="#2a66a1" stroke-width="1.51" id="svg_25" class=""/><path d="M2381.4946718624847,1087.7205672046773 L2305.2536541280842,1247.7347873336114 L2551.0455918986877,1267.7365648497284 z" fill="#346ca6" stroke="#346ca6" stroke-width="1.51" id="svg_26" class=""/><path d="M2467.977020337327,1913.5082389414988 L2445.218507580789,2143.5286803768417 L2551.0455918986877,1267.7365648497284 z" fill="#0f4b8f" stroke="#0f4b8f" stroke-width="1.51" id="svg_27" class=""/><path d="M2496.425161282998,990.5690764121101 L2381.4946718624847,1087.7205672046773 L2551.0455918986877,1267.7365648497284 z" fill="#3a6ca4" stroke="#3a6ca4" stroke-width="1.51" id="svg_28" class=""/><path d="M2450.908135769924,1443.4664673127545 L2470.2528716129805,1580.6215131375554 L2551.0455918986877,1267.7365648497284 z" fill="#235d9a" stroke="#235d9a" stroke-width="1.51" id="svg_29" class=""/><path d="M2547.6318149852073,791.9799996449505 L2496.425161282998,990.5690764121101 L2551.0455918986877,1267.7365648497284 z" fill="#406ea2" stroke="#406ea2" stroke-width="1.51" id="svg_30" class=""/><path d="M2470.2528716129805,1580.6215131375554 L2467.977020337327,1913.5082389414988 L2551.0455918986877,1267.7365648497284 z" fill="#185595" stroke="#185595" stroke-width="1.51" id="svg_31" class=""/><path d="M2322.3225386954878,381.94356056455626 L2431.5633999268666,417.6610204147647 L2537.3904842447655,219.07194364760528 z" fill="#768ab8" stroke="#768ab8" stroke-width="1.51" id="svg_32" class=""/><path d="M2296.150249025469,136.20743679512145 L2322.3225386954878,381.94356056455626 L2537.3904842447655,219.07194364760528 z" fill="#7c8fbc" stroke="#7c8fbc" stroke-width="1.51" id="svg_33" class=""/><path d="M2367.8395642085616,2123.526902860725 L2445.218507580789,2143.5286803768417 L2467.977020337327,1913.5082389414988 z" fill="#093e80" stroke="#093e80" stroke-width="1.51" id="svg_34" class=""/><path d="M2260.8745542528363,824.8400627071422 L2381.4946718624847,1087.7205672046773 L2496.425161282998,990.5690764121101 z" fill="#4879af" stroke="#4879af" stroke-width="1.51" id="svg_35" class=""/><path d="M2376.942969311177,1873.5046839092652 L2367.8395642085616,2123.526902860725 L2467.977020337327,1913.5082389414988 z" fill="#094489" stroke="#094489" stroke-width="1.51" id="svg_36" class=""/><path d="M2431.5633999268666,417.6610204147647 L2273.3917362689317,594.8196212717993 L2485.04590490473,546.2438758755156 z" fill="#6d87b7" stroke="#6d87b7" stroke-width="1.51" id="svg_37" class=""/><path d="M2305.2536541280842,1247.7347873336114 L2265.4262568041436,1367.745452430312 L2450.908135769924,1443.4664673127545 z" fill="#2969a8" stroke="#2969a8" stroke-width="1.51" id="svg_38" class=""/><path d="M2450.908135769924,1443.4664673127545 L2357.5982334681203,1642.0555440799137 L2470.2528716129805,1580.6215131375554 z" fill="#1b5a9c" stroke="#1b5a9c" stroke-width="1.51" id="svg_39" class=""/><path d="M2322.3225386954878,381.94356056455626 L2273.3917362689317,594.8196212717993 L2431.5633999268666,417.6610204147647 z" fill="#728cbc" stroke="#728cbc" stroke-width="1.51" id="svg_40" class=""/><path d="M2265.4262568041436,1367.745452430312 L2357.5982334681203,1642.0555440799137 L2450.908135769924,1443.4664673127545 z" fill="#2061a3" stroke="#2061a3" stroke-width="1.51" id="svg_41" class=""/><path d="M2190.32316470757,-50.95205281997134 L2296.150249025469,136.20743679512145 L2340.5293489007167,-99.52779821625496 z" fill="#8a9bc8" stroke="#8a9bc8" stroke-width="1.51" id="svg_42" class=""/><path d="M2265.4262568041436,1367.745452430312 L2211.943751826281,1707.7756702042977 L2357.5982334681203,1642.0555440799137 z" fill="#1a61a6" stroke="#1a61a6" stroke-width="1.51" id="svg_43" class=""/><path d="M2357.5982334681203,1642.0555440799137 L2211.943751826281,1707.7756702042977 L2376.942969311177,1873.5046839092652 z" fill="#11559c" stroke="#11559c" stroke-width="1.51" id="svg_44" class=""/><path d="M2211.943751826281,1707.7756702042977 L2166.426726313206,1873.5046839092652 L2376.942969311177,1873.5046839092652 z" fill="#0d549e" stroke="#0d549e" stroke-width="1.51" id="svg_45" class=""/><path d="M2213.0816774641075,2077.808554252458 L2367.8395642085616,2123.526902860725 L2376.942969311177,1873.5046839092652 z" fill="#09468b" stroke="#09468b" stroke-width="1.51" id="svg_46" class=""/><path d="M2166.426726313206,1873.5046839092652 L2213.0816774641075,2077.808554252458 L2376.942969311177,1873.5046839092652 z" fill="#084d97" stroke="#084d97" stroke-width="1.51" id="svg_47" class=""/><path d="M2192.599015983224,1087.7205672046773 L2305.2536541280842,1247.7347873336114 L2381.4946718624847,1087.7205672046773 z" fill="#3b75b1" stroke="#3b75b1" stroke-width="1.51" id="svg_48" class=""/><path d="M2260.8745542528363,824.8400627071422 L2192.599015983224,1087.7205672046773 L2381.4946718624847,1087.7205672046773 z" fill="#467db6" stroke="#467db6" stroke-width="1.51" id="svg_49" class=""/><path d="M2120.9097008001313,1437.751673736721 L2211.943751826281,1707.7756702042977 L2265.4262568041436,1367.745452430312 z" fill="#2068ad" stroke="#2068ad" stroke-width="1.51" id="svg_50" class=""/><path d="M2182.3576852427823,451.94978187096496 L2273.3917362689317,594.8196212717993 L2322.3225386954878,381.94356056455626 z" fill="#7390c3" stroke="#7390c3" stroke-width="1.51" id="svg_52" class=""/><path d="M2205.1161979993194,830.5548562831758 L2192.599015983224,1087.7205672046773 L2260.8745542528363,824.8400627071422 z" fill="#5083bb" stroke="#5083bb" stroke-width="1.51" id="svg_53" class=""/><path d="M2296.150249025469,136.20743679512145 L2165.288800675379,133.35004000710478 L2322.3225386954878,381.94356056455626 z" fill="#8096c6" stroke="#8096c6" stroke-width="1.51" id="svg_54" class=""/><path d="M2165.288800675379,133.35004000710478 L2182.3576852427823,451.94978187096496 L2322.3225386954878,381.94356056455626 z" fill="#7d96c7" stroke="#7d96c7" stroke-width="1.51" id="svg_55" class=""/><path d="M2205.1161979993194,830.5548562831758 L2260.8745542528363,824.8400627071422 L2273.3917362689317,594.8196212717993 z" fill="#5f89bd" stroke="#5f89bd" stroke-width="1.51" id="svg_56" class=""/><path d="M2190.32316470757,-50.95205281997134 L2165.288800675379,133.35004000710478 L2296.150249025469,136.20743679512145 z" fill="#879ccb" stroke="#879ccb" stroke-width="1.51" id="svg_57" class=""/><path d="M2098.151188043594,656.2536522141579 L2205.1161979993194,830.5548562831758 L2273.3917362689317,594.8196212717993 z" fill="#658ec0" stroke="#658ec0" stroke-width="1.51" id="svg_58" class=""/><path d="M2127.737254627092,1190.5868515732777 L2265.4262568041436,1367.745452430312 L2305.2536541280842,1247.7347873336114 z" fill="#3073b2" stroke="#3073b2" stroke-width="1.51" id="svg_59" class=""/><path d="M2192.599015983224,1087.7205672046773 L2127.737254627092,1190.5868515732777 L2305.2536541280842,1247.7347873336114 z" fill="#3978b5" stroke="#3978b5" stroke-width="1.51" id="svg_60" class=""/><path d="M2127.737254627092,1190.5868515732777 L2120.9097008001313,1437.751673736721 L2265.4262568041436,1367.745452430312 z" fill="#2c73b3" stroke="#2c73b3" stroke-width="1.51" id="svg_61" class=""/><path d="M2182.3576852427823,451.94978187096496 L2098.151188043594,656.2536522141579 L2273.3917362689317,594.8196212717993 z" fill="#6f92c4" stroke="#6f92c4" stroke-width="1.51" id="svg_62" class=""/><path d="M1999.1516575526562,153.35181752322154 L2036.7032036009432,449.09238508294834 L2165.288800675379,133.35004000710478 z" fill="#84a0ce" stroke="#84a0ce" stroke-width="1.51" id="svg_63" class=""/><path d="M2165.288800675379,133.35004000710478 L2036.7032036009432,449.09238508294834 L2182.3576852427823,451.94978187096496 z" fill="#7e9aca" stroke="#7e9aca" stroke-width="1.51" id="svg_64" class=""/><path d="M2018.4963933957129,861.9862209513592 L1984.358624260907,957.709013349918 L2192.599015983224,1087.7205672046773 z" fill="#4d88c0" stroke="#4d88c0" stroke-width="1.51" id="svg_65" class=""/><path d="M2018.4963933957129,861.9862209513592 L2192.599015983224,1087.7205672046773 L2205.1161979993194,830.5548562831758 z" fill="#5186be" stroke="#5186be" stroke-width="1.51" id="svg_66" class=""/><path d="M2120.9097008001313,1437.751673736721 L1982.082772985253,1666.3434167780558 L2211.943751826281,1707.7756702042977 z" fill="#1b67ad" stroke="#1b67ad" stroke-width="1.51" id="svg_67" class=""/><path d="M1991.1861780878678,1834.92982727104 L2166.426726313206,1873.5046839092652 L2211.943751826281,1707.7756702042977 z" fill="#135ba4" stroke="#135ba4" stroke-width="1.51" id="svg_68" class=""/><path d="M1982.082772985253,1666.3434167780558 L1991.1861780878678,1834.92982727104 L2211.943751826281,1707.7756702042977 z" fill="#1862aa" stroke="#1862aa" stroke-width="1.51" id="svg_69" class=""/><path d="M2166.426726313206,1873.5046839092652 L2038.9790548765968,2082.094649434483 L2213.0816774641075,2077.808554252458 z" fill="#0d4f96" stroke="#0d4f96" stroke-width="1.51" id="svg_70" class=""/><path d="M2018.4963933957129,571.9604469676658 L2098.151188043594,656.2536522141579 L2182.3576852427823,451.94978187096496 z" fill="#7196c7" stroke="#7196c7" stroke-width="1.51" id="svg_71" class=""/><path d="M2098.151188043594,656.2536522141579 L2018.4963933957129,861.9862209513592 L2205.1161979993194,830.5548562831758 z" fill="#5f8fc2" stroke="#5f8fc2" stroke-width="1.51" id="svg_72" class=""/><path d="M2036.7032036009432,449.09238508294834 L2018.4963933957129,571.9604469676658 L2182.3576852427823,451.94978187096496 z" fill="#7698c9" stroke="#7698c9" stroke-width="1.51" id="svg_73" class=""/><path d="M1999.1516575526562,153.35181752322154 L2165.288800675379,133.35004000710478 L2190.32316470757,-50.95205281997134 z" fill="#8aa1ce" stroke="#8aa1ce" stroke-width="1.51" id="svg_74" class=""/><path d="M1952.4967064017546,-62.38163997203809 L1999.1516575526562,153.35181752322154 L2190.32316470757,-50.95205281997134 z" fill="#8ea6d2" stroke="#8ea6d2" stroke-width="1.51" id="svg_75" class=""/><path d="M1984.358624260907,957.709013349918 L2127.737254627092,1190.5868515732777 L2192.599015983224,1087.7205672046773 z" fill="#4381bc" stroke="#4381bc" stroke-width="1.51" id="svg_76" class=""/><path d="M1972.9793678826381,1249.16348572762 L2120.9097008001313,1437.751673736721 L2127.737254627092,1190.5868515732777 z" fill="#317ab7" stroke="#317ab7" stroke-width="1.51" id="svg_77" class=""/><path d="M1972.9793678826381,1249.16348572762 L1963.8759627800232,1367.745452430312 L2120.9097008001313,1437.751673736721 z" fill="#2e79b8" stroke="#2e79b8" stroke-width="1.51" id="svg_79" class=""/><path d="M1991.1861780878678,1834.92982727104 L2038.9790548765968,2082.094649434483 L2166.426726313206,1873.5046839092652 z" fill="#10579f" stroke="#10579f" stroke-width="1.51" id="svg_80" class=""/><path d="M1963.8759627800232,1367.745452430312 L1982.082772985253,1666.3434167780558 L2120.9097008001313,1437.751673736721 z" fill="#2671b4" stroke="#2671b4" stroke-width="1.51" id="svg_81" class=""/><path d="M1984.358624260907,957.709013349918 L1972.9793678826381,1249.16348572762 L2127.737254627092,1190.5868515732777 z" fill="#4083bd" stroke="#4083bd" stroke-width="1.51" id="svg_82" class=""/><path d="M2018.4963933957129,571.9604469676658 L2018.4963933957129,861.9862209513592 L2098.151188043594,656.2536522141579 z" fill="#6895c6" stroke="#6895c6" stroke-width="1.51" id="svg_83" class=""/><path d="M1963.8759627800232,1367.745452430312 L1850.083398997336,1583.4789099255718 L1982.082772985253,1666.3434167780558 z" fill="#2572b5" stroke="#2572b5" stroke-width="1.51" id="svg_84" class=""/><path d="M1861.4626553756052,967.7099021079764 L1972.9793678826381,1249.16348572762 L1984.358624260907,957.709013349918 z" fill="#488bc3" stroke="#488bc3" stroke-width="1.51" id="svg_85" class=""/><path d="M1800.0146709329542,133.35004000710478 L1764.7389761603208,413.3749252327398 L1999.1516575526562,153.35181752322154 z" fill="#89abd6" stroke="#89abd6" stroke-width="1.51" id="svg_86" class=""/><path d="M1853.497175910817,794.837396432967 L2018.4963933957129,861.9862209513592 L2018.4963933957129,571.9604469676658 z" fill="#6697c8" stroke="#6697c8" stroke-width="1.51" id="svg_87" class=""/><path d="M1999.1516575526562,153.35181752322154 L1764.7389761603208,413.3749252327398 L2036.7032036009432,449.09238508294834 z" fill="#82a4d2" stroke="#82a4d2" stroke-width="1.51" id="svg_88" class=""/><path d="M1991.1861780878678,1834.92982727104 L1785.2216376412048,1850.6455096051316 L2038.9790548765968,2082.094649434483 z" fill="#165da5" stroke="#165da5" stroke-width="1.51" id="svg_89" class=""/><path d="M1785.2216376412048,1850.6455096051316 L1745.3942403172643,2092.095538192542 L2038.9790548765968,2082.094649434483 z" fill="#1a5da0" stroke="#1a5da0" stroke-width="1.51" id="svg_90" class=""/><path d="M1764.7389761603208,413.3749252327398 L2018.4963933957129,571.9604469676658 L2036.7032036009432,449.09238508294834 z" fill="#7ba1d0" stroke="#7ba1d0" stroke-width="1.51" id="svg_91" class=""/><path d="M1952.4967064017546,-62.38163997203809 L1800.0146709329542,133.35004000710478 L1999.1516575526562,153.35181752322154 z" fill="#8eacd6" stroke="#8eacd6" stroke-width="1.51" id="svg_92" class=""/><path d="M1853.497175910817,794.837396432967 L1984.358624260907,957.709013349918 L2018.4963933957129,861.9862209513592 z" fill="#5a92c6" stroke="#5a92c6" stroke-width="1.51" id="svg_93" class=""/><path d="M1754.497645419879,643.3953666680827 L1853.497175910817,794.837396432967 L2018.4963933957129,571.9604469676658 z" fill="#6e9fcd" stroke="#6e9fcd" stroke-width="1.51" id="svg_94" class=""/><path d="M1764.7389761603208,413.3749252327398 L1754.497645419879,643.3953666680827 L2018.4963933957129,571.9604469676658 z" fill="#79a4d0" stroke="#79a4d0" stroke-width="1.51" id="svg_95" class=""/><path d="M1840.9799938947215,1390.6046267344454 L1850.083398997336,1583.4789099255718 L1963.8759627800232,1367.745452430312 z" fill="#2c7aba" stroke="#2c7aba" stroke-width="1.51" id="svg_96" class=""/><path d="M1861.4626553756052,967.7099021079764 L1756.7734966955334,1223.4469146354697 L1972.9793678826381,1249.16348572762 z" fill="#438ac3" stroke="#438ac3" stroke-width="1.51" id="svg_97" class=""/><path d="M1853.497175910817,794.837396432967 L1861.4626553756052,967.7099021079764 L1984.358624260907,957.709013349918 z" fill="#5793c8" stroke="#5793c8" stroke-width="1.51" id="svg_98" class=""/><path d="M1982.082772985253,1666.3434167780558 L1785.2216376412048,1850.6455096051316 L1991.1861780878678,1834.92982727104 z" fill="#1b66ac" stroke="#1b66ac" stroke-width="1.51" id="svg_99" class=""/><path d="M1850.083398997336,1583.4789099255718 L1785.2216376412048,1850.6455096051316 L1982.082772985253,1666.3434167780558 z" fill="#206db1" stroke="#206db1" stroke-width="1.51" id="svg_100" class=""/><path d="M1840.9799938947215,1390.6046267344454 L1963.8759627800232,1367.745452430312 L1972.9793678826381,1249.16348572762 z" fill="#317ebc" stroke="#317ebc" stroke-width="1.51" id="svg_101" class=""/><path d="M1756.7734966955334,1223.4469146354697 L1840.9799938947215,1390.6046267344454 L1972.9793678826381,1249.16348572762 z" fill="#3884bf" stroke="#3884bf" stroke-width="1.51" id="svg_102" class=""/><path d="M1790.9112658303388,-122.38697252038844 L1800.0146709329542,133.35004000710478 L1952.4967064017546,-62.38163997203809 z" fill="#95b2d9" stroke="#95b2d9" stroke-width="1.51" id="svg_103" class=""/><path d="M1681.6704045989595,307.6512440761225 L1764.7389761603208,413.3749252327398 L1800.0146709329542,133.35004000710478 z" fill="#8bafd8" stroke="#8bafd8" stroke-width="1.51" id="svg_105" class=""/><path d="M1840.9799938947215,1390.6046267344454 L1587.2225766593297,1474.8978319809378 L1850.083398997336,1583.4789099255718 z" fill="#317ebc" stroke="#317ebc" stroke-width="1.51" id="svg_106" class=""/><path d="M1597.4639073997714,1600.623290653672 L1785.2216376412048,1850.6455096051316 L1850.083398997336,1583.4789099255718 z" fill="#2874b5" stroke="#2874b5" stroke-width="1.51" id="svg_107" class=""/><path d="M1613.3948663293477,1030.5726314443436 L1756.7734966955334,1223.4469146354697 L1861.4626553756052,967.7099021079764 z" fill="#4d93c8" stroke="#4d93c8" stroke-width="1.51" id="svg_108" class=""/><path d="M1682.8083302367866,851.9853321933008 L1613.3948663293477,1030.5726314443436 L1861.4626553756052,967.7099021079764 z" fill="#599bcb" stroke="#599bcb" stroke-width="1.51" id="svg_109" class=""/><path d="M1853.497175910817,794.837396432967 L1682.8083302367866,851.9853321933008 L1861.4626553756052,967.7099021079764 z" fill="#5e9acb" stroke="#5e9acb" stroke-width="1.51" id="svg_110" class=""/><path d="M1587.2225766593297,1474.8978319809378 L1597.4639073997714,1600.623290653672 L1850.083398997336,1583.4789099255718 z" fill="#307ebc" stroke="#307ebc" stroke-width="1.51" id="svg_111" class=""/><path d="M1754.497645419879,643.3953666680827 L1682.8083302367866,851.9853321933008 L1853.497175910817,794.837396432967 z" fill="#6aa1ce" stroke="#6aa1ce" stroke-width="1.51" id="svg_112" class=""/><path d="M1790.9112658303388,-122.38697252038844 L1616.8086432428283,-60.95294157802974 L1800.0146709329542,133.35004000710478 z" fill="#98b8dc" stroke="#98b8dc" stroke-width="1.51" id="svg_113" class=""/><path d="M1666.8773713072103,1286.3096439718367 L1587.2225766593297,1474.8978319809378 L1840.9799938947215,1390.6046267344454 z" fill="#3987c1" stroke="#3987c1" stroke-width="1.51" id="svg_114" class=""/><path d="M1756.7734966955334,1223.4469146354697 L1666.8773713072103,1286.3096439718367 L1840.9799938947215,1390.6046267344454 z" fill="#3b88c2" stroke="#3b88c2" stroke-width="1.51" id="svg_115" class=""/><path d="M1660.0498174802492,650.5388586381247 L1682.8083302367866,851.9853321933008 L1754.497645419879,643.3953666680827 z" fill="#70a6d0" stroke="#70a6d0" stroke-width="1.51" id="svg_116" class=""/><path d="M1660.0498174802492,650.5388586381247 L1754.497645419879,643.3953666680827 L1764.7389761603208,413.3749252327398 z" fill="#7aa9d3" stroke="#7aa9d3" stroke-width="1.51" id="svg_117" class=""/><path d="M1605.4293868645598,1837.7872240590568 L1745.3942403172643,2092.095538192542 L1785.2216376412048,1850.6455096051316 z" fill="#2367aa" stroke="#2367aa" stroke-width="1.51" id="svg_118" class=""/><path d="M1597.4639073997714,1600.623290653672 L1605.4293868645598,1837.7872240590568 L1785.2216376412048,1850.6455096051316 z" fill="#2a73b4" stroke="#2a73b4" stroke-width="1.51" id="svg_119" class=""/><path d="M1591.7742792106367,190.49797576743845 L1681.6704045989595,307.6512440761225 L1800.0146709329542,133.35004000710478 z" fill="#90b4da" stroke="#90b4da" stroke-width="1.51" id="svg_120" class=""/><path d="M1616.8086432428283,-60.95294157802974 L1591.7742792106367,190.49797576743845 L1800.0146709329542,133.35004000710478 z" fill="#96b9dc" stroke="#96b9dc" stroke-width="1.51" id="svg_121" class=""/><path d="M1605.4293868645598,1837.7872240590568 L1685.0841815124402,2126.384299648742 L1745.3942403172643,2092.095538192542 z" fill="#2564a4" stroke="#2564a4" stroke-width="1.51" id="svg_122" class=""/><path d="M1613.3948663293477,1030.5726314443436 L1666.8773713072103,1286.3096439718367 L1756.7734966955334,1223.4469146354697 z" fill="#4792c7" stroke="#4792c7" stroke-width="1.51" id="svg_123" class=""/><path d="M1681.6704045989595,307.6512440761225 L1660.0498174802492,650.5388586381247 L1764.7389761603208,413.3749252327398 z" fill="#83add7" stroke="#83add7" stroke-width="1.51" id="svg_124" class=""/><path d="M1462.0507564983739,597.6770180598159 L1660.0498174802492,650.5388586381247 L1681.6704045989595,307.6512440761225 z" fill="#82b1d8" stroke="#82b1d8" stroke-width="1.51" id="svg_125" class=""/><path d="M1613.3948663293477,1030.5726314443436 L1525.7745922166787,1149.1545981470358 L1666.8773713072103,1286.3096439718367 z" fill="#4c97c9" stroke="#4c97c9" stroke-width="1.51" id="svg_126" class=""/><path d="M1440.4301693796633,310.5086408641392 L1462.0507564983739,597.6770180598159 L1681.6704045989595,307.6512440761225 z" fill="#8cb7dc" stroke="#8cb7dc" stroke-width="1.51" id="svg_127" class=""/><path d="M1660.0498174802492,650.5388586381247 L1462.0507564983739,837.6983482532173 L1682.8083302367866,851.9853321933008 z" fill="#6ea8d2" stroke="#6ea8d2" stroke-width="1.51" id="svg_128" class=""/><path d="M1462.0507564983739,837.6983482532173 L1613.3948663293477,1030.5726314443436 L1682.8083302367866,851.9853321933008 z" fill="#62a3cf" stroke="#62a3cf" stroke-width="1.51" id="svg_129" class=""/><path d="M1605.4293868645598,1837.7872240590568 L1455.2232026714128,2117.812109284692 L1685.0841815124402,2126.384299648742 z" fill="#2967a5" stroke="#2967a5" stroke-width="1.51" id="svg_130" class=""/><path d="M1591.7742792106367,190.49797576743845 L1440.4301693796633,310.5086408641392 L1681.6704045989595,307.6512440761225 z" fill="#91b9dc" stroke="#91b9dc" stroke-width="1.51" id="svg_131" class=""/><path d="M1597.4639073997714,1600.623290653672 L1523.498740941025,1607.7667826237134 L1605.4293868645598,1837.7872240590568 z" fill="#307cb9" stroke="#307cb9" stroke-width="1.51" id="svg_132" class=""/><path d="M1462.0507564983739,597.6770180598159 L1462.0507564983739,837.6983482532173 L1660.0498174802492,650.5388586381247 z" fill="#78b0d5" stroke="#78b0d5" stroke-width="1.51" id="svg_133" class=""/><path d="M1449.5335744822785,1402.0342138865124 L1587.2225766593297,1474.8978319809378 L1666.8773713072103,1286.3096439718367 z" fill="#3e8dc4" stroke="#3e8dc4" stroke-width="1.51" id="svg_134" class=""/><path d="M1525.7745922166787,1149.1545981470358 L1449.5335744822785,1402.0342138865124 L1666.8773713072103,1286.3096439718367 z" fill="#4593c7" stroke="#4593c7" stroke-width="1.51" id="svg_135" class=""/><path d="M1587.2225766593297,1474.8978319809378 L1523.498740941025,1607.7667826237134 L1597.4639073997714,1600.623290653672 z" fill="#3583bf" stroke="#3583bf" stroke-width="1.51" id="svg_137" class=""/><path d="M1523.498740941025,1607.7667826237134 L1471.1541616009888,1794.9262722388064 L1605.4293868645598,1837.7872240590568 z" fill="#327ab8" stroke="#327ab8" stroke-width="1.51" id="svg_138" class=""/><path d="M1471.1541616009888,1794.9262722388064 L1455.2232026714128,2117.812109284692 L1605.4293868645598,1837.7872240590568 z" fill="#3071b0" stroke="#3071b0" stroke-width="1.51" id="svg_139" class=""/><path d="M1462.0507564983739,837.6983482532173 L1408.568251520511,987.7116796240931 L1613.3948663293477,1030.5726314443436 z" fill="#62a5d1" stroke="#62a5d1" stroke-width="1.51" id="svg_140" class=""/><path d="M1431.3267642770484,121.92045285503802 L1591.7742792106367,190.49797576743845 L1616.8086432428283,-60.95294157802974 z" fill="#9abfdf" stroke="#9abfdf" stroke-width="1.51" id="svg_141" class=""/><path d="M1491.6368230818725,-130.9591628844385 L1431.3267642770484,121.92045285503802 L1616.8086432428283,-60.95294157802974 z" fill="#a0c3e2" stroke="#a0c3e2" stroke-width="1.51" id="svg_142" class=""/><path d="M1408.568251520511,987.7116796240931 L1525.7745922166787,1149.1545981470358 L1613.3948663293477,1030.5726314443436 z" fill="#579fce" stroke="#579fce" stroke-width="1.51" id="svg_143" class=""/><path d="M1431.3267642770484,121.92045285503802 L1440.4301693796633,310.5086408641392 L1591.7742792106367,190.49797576743845 z" fill="#97bedf" stroke="#97bedf" stroke-width="1.51" id="svg_144" class=""/><path d="M1449.5335744822785,1402.0342138865124 L1523.498740941025,1607.7667826237134 L1587.2225766593297,1474.8978319809378 z" fill="#3c89c2" stroke="#3c89c2" stroke-width="1.51" id="svg_145" class=""/><path d="M1326.6376055969765,1876.362080697282 L1338.0168619752453,2084.9520462225 L1455.2232026714128,2117.812109284692 z" fill="#3870aa" stroke="#3870aa" stroke-width="1.51" id="svg_146" class=""/><path d="M1440.4301693796633,310.5086408641392 L1333.4651594239376,539.1003839054738 L1462.0507564983739,597.6770180598159 z" fill="#8dbadd" stroke="#8dbadd" stroke-width="1.51" id="svg_147" class=""/><path d="M1326.6376055969765,1876.362080697282 L1455.2232026714128,2117.812109284692 L1471.1541616009888,1794.9262722388064 z" fill="#3774b1" stroke="#3774b1" stroke-width="1.51" id="svg_148" class=""/><path d="M1295.9136133756513,-85.24081427617156 L1431.3267642770484,121.92045285503802 L1491.6368230818725,-130.9591628844385 z" fill="#a6c8e4" stroke="#a6c8e4" stroke-width="1.51" id="svg_149" class=""/><path d="M1449.5335744822785,1402.0342138865124 L1276.5688775325943,1406.3203090685374 L1523.498740941025,1607.7667826237134 z" fill="#448ec5" stroke="#448ec5" stroke-width="1.51" id="svg_150" class=""/><path d="M1240.1552571221343,1726.3487493264063 L1471.1541616009888,1794.9262722388064 L1523.498740941025,1607.7667826237134 z" fill="#3c81bc" stroke="#3c81bc" stroke-width="1.51" id="svg_151" class=""/><path d="M1260.637918603018,1182.0146612092276 L1449.5335744822785,1402.0342138865124 L1525.7745922166787,1149.1545981470358 z" fill="#509acb" stroke="#509acb" stroke-width="1.51" id="svg_152" class=""/><path d="M1408.568251520511,987.7116796240931 L1260.637918603018,1182.0146612092276 L1525.7745922166787,1149.1545981470358 z" fill="#5ba2cf" stroke="#5ba2cf" stroke-width="1.51" id="svg_153" class=""/><path d="M1276.5688775325943,1406.3203090685374 L1240.1552571221343,1726.3487493264063 L1523.498740941025,1607.7667826237134 z" fill="#448bc3" stroke="#448bc3" stroke-width="1.51" id="svg_154" class=""/><path d="M1282.2585057217284,756.2625397947418 L1462.0507564983739,837.6983482532173 L1462.0507564983739,597.6770180598159 z" fill="#7bb3d7" stroke="#7bb3d7" stroke-width="1.51" id="svg_155" class=""/><path d="M1260.637918603018,1182.0146612092276 L1276.5688775325943,1406.3203090685374 L1449.5335744822785,1402.0342138865124 z" fill="#509acb" stroke="#509acb" stroke-width="1.51" id="svg_156" class=""/><path d="M1333.4651594239376,539.1003839054738 L1282.2585057217284,756.2625397947418 L1462.0507564983739,597.6770180598159 z" fill="#85b8da" stroke="#85b8da" stroke-width="1.51" id="svg_157" class=""/><path d="M1240.1552571221343,1726.3487493264063 L1326.6376055969765,1876.362080697282 L1471.1541616009888,1794.9262722388064 z" fill="#3e7fba" stroke="#3e7fba" stroke-width="1.51" id="svg_158" class=""/><path d="M1431.3267642770484,121.92045285503802 L1268.6033980678064,233.3589275876887 L1440.4301693796633,310.5086408641392 z" fill="#9cc2e2" stroke="#9cc2e2" stroke-width="1.51" id="svg_159" class=""/><path d="M1285.6722826352093,970.5672988959932 L1408.568251520511,987.7116796240931 L1462.0507564983739,837.6983482532173 z" fill="#6aabd4" stroke="#6aabd4" stroke-width="1.51" id="svg_160" class=""/><path d="M1282.2585057217284,756.2625397947418 L1285.6722826352093,970.5672988959932 L1462.0507564983739,837.6983482532173 z" fill="#73b0d6" stroke="#73b0d6" stroke-width="1.51" id="svg_161" class=""/><path d="M1233.3277032951733,356.22698947240616 L1333.4651594239376,539.1003839054738 L1440.4301693796633,310.5086408641392 z" fill="#96c0e0" stroke="#96c0e0" stroke-width="1.51" id="svg_162" class=""/><path d="M1285.6722826352093,970.5672988959932 L1260.637918603018,1182.0146612092276 L1408.568251520511,987.7116796240931 z" fill="#63a8d3" stroke="#63a8d3" stroke-width="1.51" id="svg_163" class=""/><path d="M1268.6033980678064,233.3589275876887 L1233.3277032951733,356.22698947240616 L1440.4301693796633,310.5086408641392 z" fill="#9bc3e2" stroke="#9bc3e2" stroke-width="1.51" id="svg_164" class=""/><path d="M1295.9136133756513,-85.24081427617156 L1268.6033980678064,233.3589275876887 L1431.3267642770484,121.92045285503802 z" fill="#a4c8e4" stroke="#a4c8e4" stroke-width="1.51" id="svg_165" class=""/><path d="M1175.2934957660032,-69.5251319420798 L1165.0521650255614,201.92756291950516 L1268.6033980678064,233.3589275876887 z" fill="#a8cde7" stroke="#a8cde7" stroke-width="1.51" id="svg_167" class=""/><path d="M1114.9834369611788,1413.463801038579 L1240.1552571221343,1726.3487493264063 L1276.5688775325943,1406.3203090685374 z" fill="#4f94c8" stroke="#4f94c8" stroke-width="1.51" id="svg_168" class=""/><path d="M1175.2934957660032,-69.5251319420798 L1268.6033980678064,233.3589275876887 L1295.9136133756513,-85.24081427617156 z" fill="#aacde7" stroke="#aacde7" stroke-width="1.51" id="svg_169" class=""/><path d="M1089.9490729289878,1833.5011288770318 L1151.3970573716388,2164.959156286967 L1326.6376055969765,1876.362080697282 z" fill="#467bb4" stroke="#467bb4" stroke-width="1.51" id="svg_170" class=""/><path d="M1108.1558831342177,530.5281935414239 L1282.2585057217284,756.2625397947418 L1333.4651594239376,539.1003839054738 z" fill="#8dbede" stroke="#8dbede" stroke-width="1.51" id="svg_171" class=""/><path d="M1326.6376055969765,1876.362080697282 L1151.3970573716388,2164.959156286967 L1338.0168619752453,2084.9520462225 z" fill="#3e73ab" stroke="#3e73ab" stroke-width="1.51" id="svg_172" class=""/><path d="M1260.637918603018,1182.0146612092276 L1151.3970573716388,1260.5930728796866 L1276.5688775325943,1406.3203090685374 z" fill="#58a1cf" stroke="#58a1cf" stroke-width="1.51" id="svg_173" class=""/><path d="M1233.3277032951733,356.22698947240616 L1108.1558831342177,530.5281935414239 L1333.4651594239376,539.1003839054738 z" fill="#97c2e1" stroke="#97c2e1" stroke-width="1.51" id="svg_174" class=""/><path d="M1114.9834369611788,1413.463801038579 L1185.534826506445,1736.3496380844645 L1240.1552571221343,1726.3487493264063 z" fill="#4e8fc5" stroke="#4e8fc5" stroke-width="1.51" id="svg_175" class=""/><path d="M1138.8798753555432,1090.5779639926936 L1260.637918603018,1182.0146612092276 L1285.6722826352093,970.5672988959932 z" fill="#66aad3" stroke="#66aad3" stroke-width="1.51" id="svg_176" class=""/><path d="M1240.1552571221343,1726.3487493264063 L1185.534826506445,1736.3496380844645 L1326.6376055969765,1876.362080697282 z" fill="#4583bd" stroke="#4583bd" stroke-width="1.51" id="svg_177" class=""/><path d="M1185.534826506445,1736.3496380844645 L1089.9490729289878,1833.5011288770318 L1326.6376055969765,1876.362080697282 z" fill="#4883bc" stroke="#4883bc" stroke-width="1.51" id="svg_178" class=""/><path d="M1108.1558831342177,530.5281935414239 L1089.9490729289878,737.6894606726333 L1282.2585057217284,756.2625397947418 z" fill="#8dbfde" stroke="#8dbfde" stroke-width="1.51" id="svg_179" class=""/><path d="M1282.2585057217284,756.2625397947418 L1089.9490729289878,737.6894606726333 L1285.6722826352093,970.5672988959932 z" fill="#7db6da" stroke="#7db6da" stroke-width="1.51" id="svg_180" class=""/><path d="M1133.1902471664089,374.8000685945145 L1108.1558831342177,530.5281935414239 L1233.3277032951733,356.22698947240616 z" fill="#9fc6e4" stroke="#9fc6e4" stroke-width="1.51" id="svg_181" class=""/><path d="M1089.9490729289878,737.6894606726333 L1138.8798753555432,1090.5779639926936 L1285.6722826352093,970.5672988959932 z" fill="#76b3d8" stroke="#76b3d8" stroke-width="1.51" id="svg_182" class=""/><path d="M1151.3970573716388,1260.5930728796866 L1114.9834369611788,1413.463801038579 L1276.5688775325943,1406.3203090685374 z" fill="#589ecd" stroke="#589ecd" stroke-width="1.51" id="svg_183" class=""/><path d="M1165.0521650255614,201.92756291950516 L1233.3277032951733,356.22698947240616 L1268.6033980678064,233.3589275876887 z" fill="#a1c8e5" stroke="#a1c8e5" stroke-width="1.51" id="svg_184" class=""/><path d="M1138.8798753555432,1090.5779639926936 L1151.3970573716388,1260.5930728796866 L1260.637918603018,1182.0146612092276 z" fill="#63a7d2" stroke="#63a7d2" stroke-width="1.51" id="svg_185" class=""/><path d="M1114.9834369611788,1413.463801038579 L973.8806578706472,1634.912052109872 L1185.534826506445,1736.3496380844645 z" fill="#5794c8" stroke="#5794c8" stroke-width="1.51" id="svg_186" class=""/><path d="M1165.0521650255614,201.92756291950516 L1133.1902471664089,374.8000685945145 L1233.3277032951733,356.22698947240616 z" fill="#a2c9e5" stroke="#a2c9e5" stroke-width="1.51" id="svg_187" class=""/><path d="M1004.6046500919724,-9.519799393729418 L1165.0521650255614,201.92756291950516 L1175.2934957660032,-69.5251319420798 z" fill="#b2d3e9" stroke="#b2d3e9" stroke-width="1.51" id="svg_188" class=""/><path d="M971.6048065949933,1500.6144030730882 L973.8806578706472,1634.912052109872 L1114.9834369611788,1413.463801038579 z" fill="#619ccb" stroke="#619ccb" stroke-width="1.51" id="svg_189" class=""/><path d="M1089.9490729289878,737.6894606726333 L943.1566656493217,839.1270466472257 L1138.8798753555432,1090.5779639926936 z" fill="#83badb" stroke="#83badb" stroke-width="1.51" id="svg_190" class=""/><path d="M943.1566656493217,839.1270466472257 L1011.4322039189337,1094.864059174719 L1138.8798753555432,1090.5779639926936 z" fill="#7ab6d9" stroke="#7ab6d9" stroke-width="1.51" id="svg_191" class=""/><path d="M1089.9490729289878,1833.5011288770318 L989.8116168002232,2154.9582675289084 L1151.3970573716388,2164.959156286967 z" fill="#4e7aae" stroke="#4e7aae" stroke-width="1.51" id="svg_192" class=""/><path d="M973.8806578706472,1634.912052109872 L1089.9490729289878,1833.5011288770318 L1185.534826506445,1736.3496380844645 z" fill="#548cc2" stroke="#548cc2" stroke-width="1.51" id="svg_193" class=""/><path d="M1004.6046500919724,-9.519799393729418 L936.3291118223602,151.92311912921318 L1165.0521650255614,201.92756291950516 z" fill="#b4d4ea" stroke="#b4d4ea" stroke-width="1.51" id="svg_194" class=""/><path d="M1138.8798753555432,1090.5779639926936 L994.3633193515308,1149.1545981470358 L1151.3970573716388,1260.5930728796866 z" fill="#6babd4" stroke="#6babd4" stroke-width="1.51" id="svg_195" class=""/><path d="M976.1565091463007,377.6574653825312 L1133.1902471664089,374.8000685945145 L1165.0521650255614,201.92756291950516 z" fill="#a8cce6" stroke="#a8cce6" stroke-width="1.51" id="svg_196" class=""/><path d="M936.3291118223602,151.92311912921318 L976.1565091463007,377.6574653825312 L1165.0521650255614,201.92756291950516 z" fill="#b0d1e8" stroke="#b0d1e8" stroke-width="1.51" id="svg_197" class=""/><path d="M973.8806578706472,1634.912052109872 L981.8461373354351,1806.355859390873 L1089.9490729289878,1833.5011288770318 z" fill="#5a8dc2" stroke="#5a8dc2" stroke-width="1.51" id="svg_198" class=""/><path d="M981.8461373354351,1806.355859390873 L989.8116168002232,2154.9582675289084 L1089.9490729289878,1833.5011288770318 z" fill="#5683b9" stroke="#5683b9" stroke-width="1.51" id="svg_199" class=""/><path d="M1011.4322039189337,1094.864059174719 L994.3633193515308,1149.1545981470358 L1138.8798753555432,1090.5779639926936 z" fill="#73b0d6" stroke="#73b0d6" stroke-width="1.51" id="svg_200" class=""/><path d="M994.3633193515308,1149.1545981470358 L1114.9834369611788,1413.463801038579 L1151.3970573716388,1260.5930728796866 z" fill="#65a6d1" stroke="#65a6d1" stroke-width="1.51" id="svg_201" class=""/><path d="M976.1565091463007,377.6574653825312 L1108.1558831342177,530.5281935414239 L1133.1902471664089,374.8000685945145 z" fill="#a5cae5" stroke="#a5cae5" stroke-width="1.51" id="svg_202" class=""/><path d="M907.8809708766888,614.821398787916 L1089.9490729289878,737.6894606726333 L1108.1558831342177,530.5281935414239 z" fill="#99c5e1" stroke="#99c5e1" stroke-width="1.51" id="svg_203" class=""/><path d="M994.3633193515308,1149.1545981470358 L971.6048065949933,1500.6144030730882 L1114.9834369611788,1413.463801038579 z" fill="#66a5d0" stroke="#66a5d0" stroke-width="1.51" id="svg_204" class=""/><path d="M976.1565091463007,377.6574653825312 L907.8809708766888,614.821398787916 L1108.1558831342177,530.5281935414239 z" fill="#a4cae4" stroke="#a4cae4" stroke-width="1.51" id="svg_205" class=""/><path d="M907.8809708766888,614.821398787916 L943.1566656493217,839.1270466472257 L1089.9490729289878,737.6894606726333 z" fill="#96c5df" stroke="#96c5df" stroke-width="1.51" id="svg_207" class=""/><path d="M769.0540430618107,1184.8720579972446 L765.64026614833,1520.6161805892048 L971.6048065949933,1500.6144030730882 z" fill="#73a9d2" stroke="#73a9d2" stroke-width="1.51" id="svg_208" class=""/><path d="M981.8461373354351,1806.355859390873 L805.4676634722706,1872.075985515257 L989.8116168002232,2154.9582675289084 z" fill="#5c86b9" stroke="#5c86b9" stroke-width="1.51" id="svg_209" class=""/><path d="M805.4676634722706,1872.075985515257 L810.0193660235781,2143.5286803768417 L989.8116168002232,2154.9582675289084 z" fill="#5e81b1" stroke="#5e81b1" stroke-width="1.51" id="svg_210" class=""/><path d="M769.0540430618107,1184.8720579972446 L971.6048065949933,1500.6144030730882 L994.3633193515308,1149.1545981470358 z" fill="#73aed4" stroke="#73aed4" stroke-width="1.51" id="svg_211" class=""/><path d="M943.1566656493217,839.1270466472257 L750.8472328565808,941.9933310158264 L1011.4322039189337,1094.864059174719 z" fill="#89bddc" stroke="#89bddc" stroke-width="1.51" id="svg_212" class=""/><path d="M769.0540430618107,1184.8720579972446 L994.3633193515308,1149.1545981470358 L1011.4322039189337,1094.864059174719 z" fill="#7ab3d7" stroke="#7ab3d7" stroke-width="1.51" id="svg_213" class=""/><path d="M750.8472328565808,941.9933310158264 L769.0540430618107,1184.8720579972446 L1011.4322039189337,1094.864059174719 z" fill="#84b9db" stroke="#84b9db" stroke-width="1.51" id="svg_214" class=""/><path d="M936.3291118223602,151.92311912921318 L797.5021840074825,314.7947360461642 L976.1565091463007,377.6574653825312 z" fill="#b6d5e9" stroke="#b6d5e9" stroke-width="1.51" id="svg_215" class=""/><path d="M825.9503249531541,141.9222303711548 L936.3291118223602,151.92311912921318 L1004.6046500919724,-9.519799393729418 z" fill="#bdd9eb" stroke="#bdd9eb" stroke-width="1.51" id="svg_216" class=""/><path d="M748.5713815809269,-80.95471909414651 L825.9503249531541,141.9222303711548 L1004.6046500919724,-9.519799393729418 z" fill="#c4deed" stroke="#c4deed" stroke-width="1.51" id="svg_217" class=""/><path d="M973.8806578706472,1634.912052109872 L792.9504814561749,1692.0599878702058 L981.8461373354351,1806.355859390873 z" fill="#6394c6" stroke="#6394c6" stroke-width="1.51" id="svg_218" class=""/><path d="M749.7093072187538,539.1003839054738 L907.8809708766888,614.821398787916 L976.1565091463007,377.6574653825312 z" fill="#accfe6" stroke="#accfe6" stroke-width="1.51" id="svg_219" class=""/><path d="M797.5021840074825,314.7947360461642 L749.7093072187538,539.1003839054738 L976.1565091463007,377.6574653825312 z" fill="#b5d3e8" stroke="#b5d3e8" stroke-width="1.51" id="svg_220" class=""/><path d="M907.8809708766888,614.821398787916 L794.0884070940017,777.693015704867 L943.1566656493217,839.1270466472257 z" fill="#9bc8e0" stroke="#9bc8e0" stroke-width="1.51" id="svg_221" class=""/><path d="M971.6048065949933,1500.6144030730882 L765.64026614833,1520.6161805892048 L973.8806578706472,1634.912052109872 z" fill="#689ecc" stroke="#689ecc" stroke-width="1.51" id="svg_222" class=""/><path d="M792.9504814561749,1692.0599878702058 L805.4676634722706,1872.075985515257 L981.8461373354351,1806.355859390873 z" fill="#6592c3" stroke="#6592c3" stroke-width="1.51" id="svg_223" class=""/><path d="M765.64026614833,1520.6161805892048 L792.9504814561749,1692.0599878702058 L973.8806578706472,1634.912052109872 z" fill="#6b9ccb" stroke="#6b9ccb" stroke-width="1.51" id="svg_224" class=""/><path d="M825.9503249531541,141.9222303711548 L797.5021840074825,314.7947360461642 L936.3291118223602,151.92311912921318 z" fill="#bcd9eb" stroke="#bcd9eb" stroke-width="1.51" id="svg_226" class=""/><path d="M794.0884070940017,777.693015704867 L750.8472328565808,941.9933310158264 L943.1566656493217,839.1270466472257 z" fill="#96c4e0" stroke="#96c4e0" stroke-width="1.51" id="svg_227" class=""/><path d="M749.7093072187538,539.1003839054738 L794.0884070940017,777.693015704867 L907.8809708766888,614.821398787916 z" fill="#a7cee4" stroke="#a7cee4" stroke-width="1.51" id="svg_228" class=""/><path d="M618.847858868664,1469.1830384049044 L765.64026614833,1520.6161805892048 L769.0540430618107,1184.8720579972446 z" fill="#7badd4" stroke="#7badd4" stroke-width="1.51" id="svg_230" class=""/><path d="M569.9170564421086,1280.5948503958032 L618.847858868664,1469.1830384049044 L769.0540430618107,1184.8720579972446 z" fill="#83b3d8" stroke="#83b3d8" stroke-width="1.51" id="svg_231" class=""/><path d="M749.7093072187538,539.1003839054738 L651.8477023656432,567.6743517856407 L794.0884070940017,777.693015704867 z" fill="#add0e6" stroke="#add0e6" stroke-width="1.51" id="svg_232" class=""/><path d="M612.0203050417027,417.6610204147647 L749.7093072187538,539.1003839054738 L797.5021840074825,314.7947360461642 z" fill="#bbd6eb" stroke="#bbd6eb" stroke-width="1.51" id="svg_233" class=""/><path d="M792.9504814561749,1692.0599878702058 L627.951263971279,1813.4993513609147 L805.4676634722706,1872.075985515257 z" fill="#6d94c5" stroke="#6d94c5" stroke-width="1.51" id="svg_234" class=""/><path d="M627.951263971279,1813.4993513609147 L575.6066846312428,2103.525125344608 L805.4676634722706,1872.075985515257 z" fill="#6e8ec0" stroke="#6e8ec0" stroke-width="1.51" id="svg_235" class=""/><path d="M805.4676634722706,1872.075985515257 L575.6066846312428,2103.525125344608 L810.0193660235781,2143.5286803768417 z" fill="#6785b5" stroke="#6785b5" stroke-width="1.51" id="svg_236" class=""/><path d="M748.5713815809269,-80.95471909414651 L648.4339254521625,-50.95205281997134 L825.9503249531541,141.9222303711548 z" fill="#cbe1f0" stroke="#cbe1f0" stroke-width="1.51" id="svg_237" class=""/><path d="M648.4339254521625,-50.95205281997134 L626.8133383334521,173.35359503933836 L825.9503249531541,141.9222303711548 z" fill="#cadff0" stroke="#cadff0" stroke-width="1.51" id="svg_238" class=""/><path d="M626.8133383334521,173.35359503933836 L797.5021840074825,314.7947360461642 L825.9503249531541,141.9222303711548 z" fill="#c2dbed" stroke="#c2dbed" stroke-width="1.51" id="svg_239" class=""/><path d="M750.8472328565808,941.9933310158264 L585.8480153716847,1042.0022185964103 L769.0540430618107,1184.8720579972446 z" fill="#8ebede" stroke="#8ebede" stroke-width="1.51" id="svg_240" class=""/><path d="M765.64026614833,1520.6161805892048 L605.1927512147415,1584.90760831958 L792.9504814561749,1692.0599878702058 z" fill="#74a0ce" stroke="#74a0ce" stroke-width="1.51" id="svg_241" class=""/><path d="M553.9860975125324,806.2669835850337 L750.8472328565808,941.9933310158264 L794.0884070940017,777.693015704867 z" fill="#9ec8e3" stroke="#9ec8e3" stroke-width="1.51" id="svg_242" class=""/><path d="M651.8477023656432,567.6743517856407 L553.9860975125324,806.2669835850337 L794.0884070940017,777.693015704867 z" fill="#abcfe5" stroke="#abcfe5" stroke-width="1.51" id="svg_243" class=""/><path d="M626.8133383334521,173.35359503933836 L612.0203050417027,417.6610204147647 L797.5021840074825,314.7947360461642 z" fill="#c3dbed" stroke="#c3dbed" stroke-width="1.51" id="svg_244" class=""/><path d="M605.1927512147415,1584.90760831958 L627.951263971279,1813.4993513609147 L792.9504814561749,1692.0599878702058 z" fill="#749bcb" stroke="#749bcb" stroke-width="1.51" id="svg_245" class=""/><path d="M612.0203050417027,417.6610204147647 L651.8477023656432,567.6743517856407 L749.7093072187538,539.1003839054738 z" fill="#b9d5ea" stroke="#b9d5ea" stroke-width="1.51" id="svg_246" class=""/><path d="M585.8480153716847,1042.0022185964103 L569.9170564421086,1280.5948503958032 L769.0540430618107,1184.8720579972446 z" fill="#8bbadc" stroke="#8bbadc" stroke-width="1.51" id="svg_247" class=""/><path d="M618.847858868664,1469.1830384049044 L605.1927512147415,1584.90760831958 L765.64026614833,1520.6161805892048 z" fill="#7aa6d2" stroke="#7aa6d2" stroke-width="1.51" id="svg_248" class=""/><path d="M553.9860975125324,806.2669835850337 L585.8480153716847,1042.0022185964103 L750.8472328565808,941.9933310158264 z" fill="#9cc6e2" stroke="#9cc6e2" stroke-width="1.51" id="svg_249" class=""/><path d="M553.9860975125324,806.2669835850337 L483.43470796726655,873.4158081034259 L585.8480153716847,1042.0022185964103 z" fill="#a3c9e4" stroke="#a3c9e4" stroke-width="1.51" id="svg_251" class=""/><path d="M501.6415181724964,1170.585074057161 L569.9170564421086,1280.5948503958032 L585.8480153716847,1042.0022185964103 z" fill="#91bdde" stroke="#91bdde" stroke-width="1.51" id="svg_252" class=""/><path d="M478.883005415959,187.64057897942178 L612.0203050417027,417.6610204147647 L626.8133383334521,173.35359503933836 z" fill="#cbdef0" stroke="#cbdef0" stroke-width="1.51" id="svg_253" class=""/><path d="M384.43517747632893,1949.2256987917074 L575.6066846312428,2103.525125344608 L627.951263971279,1813.4993513609147 z" fill="#768fc1" stroke="#768fc1" stroke-width="1.51" id="svg_254" class=""/><path d="M605.1927512147415,1584.90760831958 L468.64167467551727,1682.0590991121474 L627.951263971279,1813.4993513609147 z" fill="#7b9ecd" stroke="#7b9ecd" stroke-width="1.51" id="svg_255" class=""/><path d="M478.883005415959,187.64057897942178 L626.8133383334521,173.35359503933836 L648.4339254521625,-50.95205281997134 z" fill="#d0e2f3" stroke="#d0e2f3" stroke-width="1.51" id="svg_256" class=""/><path d="M379.88347492502146,-96.67040142823828 L478.883005415959,187.64057897942178 L648.4339254521625,-50.95205281997134 z" fill="#d8e6f5" stroke="#d8e6f5" stroke-width="1.51" id="svg_257" class=""/><path d="M612.0203050417027,417.6610204147647 L474.3313028646516,663.3971441841996 L651.8477023656432,567.6743517856407 z" fill="#bbd6eb" stroke="#bbd6eb" stroke-width="1.51" id="svg_258" class=""/><path d="M474.3313028646516,663.3971441841996 L553.9860975125324,806.2669835850337 L651.8477023656432,567.6743517856407 z" fill="#b3d2e8" stroke="#b3d2e8" stroke-width="1.51" id="svg_259" class=""/><path d="M569.9170564421086,1280.5948503958032 L487.9864105185741,1420.6072930086211 L618.847858868664,1469.1830384049044 z" fill="#86b1d8" stroke="#86b1d8" stroke-width="1.51" id="svg_260" class=""/><path d="M384.43517747632893,1949.2256987917074 L401.50406204373195,2056.378078342333 L575.6066846312428,2103.525125344608 z" fill="#768bba" stroke="#768bba" stroke-width="1.51" id="svg_261" class=""/><path d="M478.883005415959,187.64057897942178 L419.71087224896183,311.9373392581475 L612.0203050417027,417.6610204147647 z" fill="#ccdff1" stroke="#ccdff1" stroke-width="1.51" id="svg_262" class=""/><path d="M468.64167467551727,1682.0590991121474 L384.43517747632893,1949.2256987917074 L627.951263971279,1813.4993513609147 z" fill="#7b98c9" stroke="#7b98c9" stroke-width="1.51" id="svg_263" class=""/><path d="M419.71087224896183,311.9373392581475 L474.3313028646516,663.3971441841996 L612.0203050417027,417.6610204147647 z" fill="#c5dbee" stroke="#c5dbee" stroke-width="1.51" id="svg_264" class=""/><path d="M487.9864105185741,1420.6072930086211 L605.1927512147415,1584.90760831958 L618.847858868664,1469.1830384049044 z" fill="#81aad5" stroke="#81aad5" stroke-width="1.51" id="svg_265" class=""/><path d="M487.9864105185741,1420.6072930086211 L468.64167467551727,1682.0590991121474 L605.1927512147415,1584.90760831958 z" fill="#82a7d3" stroke="#82a7d3" stroke-width="1.51" id="svg_266" class=""/><path d="M431.0901286272305,967.7099021079764 L501.6415181724964,1170.585074057161 L585.8480153716847,1042.0022185964103 z" fill="#99c3e2" stroke="#99c3e2" stroke-width="1.51" id="svg_267" class=""/><path d="M483.43470796726655,873.4158081034259 L431.0901286272305,967.7099021079764 L585.8480153716847,1042.0022185964103 z" fill="#a0c7e4" stroke="#a0c7e4" stroke-width="1.51" id="svg_268" class=""/><path d="M501.6415181724964,1170.585074057161 L487.9864105185741,1420.6072930086211 L569.9170564421086,1280.5948503958032 z" fill="#8cb7db" stroke="#8cb7db" stroke-width="1.51" id="svg_269" class=""/><path d="M419.71087224896183,311.9373392581475 L279.74601879625686,586.2474309077492 L474.3313028646516,663.3971441841996 z" fill="#c5dbee" stroke="#c5dbee" stroke-width="1.51" id="svg_270" class=""/><path d="M474.3313028646516,663.3971441841996 L483.43470796726655,873.4158081034259 L553.9860975125324,806.2669835850337 z" fill="#aed0e7" stroke="#aed0e7" stroke-width="1.51" id="svg_271" class=""/><path d="M293.40112645017933,1702.0608766282642 L384.43517747632893,1949.2256987917074 L468.64167467551727,1682.0590991121474 z" fill="#809dcc" stroke="#809dcc" stroke-width="1.51" id="svg_272" class=""/><path d="M379.88347492502146,-96.67040142823828 L312.74586229323614,160.49530949326322 L478.883005415959,187.64057897942178 z" fill="#d9e7f5" stroke="#d9e7f5" stroke-width="1.51" id="svg_273" class=""/><path d="M474.3313028646516,663.3971441841996 L234.22899328318212,751.9764446127167 L483.43470796726655,873.4158081034259 z" fill="#b3d3e8" stroke="#b3d3e8" stroke-width="1.51" id="svg_274" class=""/><path d="M324.1251186715048,1173.4424708451775 L243.3323983857971,1372.0315476123371 L487.9864105185741,1420.6072930086211 z" fill="#90b9dc" stroke="#90b9dc" stroke-width="1.51" id="svg_275" class=""/><path d="M293.40112645017933,1702.0608766282642 L468.64167467551727,1682.0590991121474 L487.9864105185741,1420.6072930086211 z" fill="#84a6d4" stroke="#84a6d4" stroke-width="1.51" id="svg_276" class=""/><path d="M243.3323983857971,1372.0315476123371 L293.40112645017933,1702.0608766282642 L487.9864105185741,1420.6072930086211 z" fill="#8aafd7" stroke="#8aafd7" stroke-width="1.51" id="svg_277" class=""/><path d="M324.1251186715048,1173.4424708451775 L487.9864105185741,1420.6072930086211 L501.6415181724964,1170.585074057161 z" fill="#91badd" stroke="#91badd" stroke-width="1.51" id="svg_278" class=""/><path d="M431.0901286272305,967.7099021079764 L324.1251186715048,1173.4424708451775 L501.6415181724964,1170.585074057161 z" fill="#9ac3e2" stroke="#9ac3e2" stroke-width="1.51" id="svg_279" class=""/><path d="M234.22899328318212,751.9764446127167 L431.0901286272305,967.7099021079764 L483.43470796726655,873.4158081034259 z" fill="#accfe7" stroke="#accfe7" stroke-width="1.51" id="svg_280" class=""/><path d="M300.22868027714065,301.9364505000891 L279.74601879625686,586.2474309077492 L419.71087224896183,311.9373392581475 z" fill="#cee0f2" stroke="#cee0f2" stroke-width="1.51" id="svg_281" class=""/><path d="M279.74601879625686,586.2474309077492 L234.22899328318212,751.9764446127167 L474.3313028646516,663.3971441841996 z" fill="#bdd8ec" stroke="#bdd8ec" stroke-width="1.51" id="svg_282" class=""/><path d="M312.74586229323614,160.49530949326322 L419.71087224896183,311.9373392581475 L478.883005415959,187.64057897942178 z" fill="#d3e3f3" stroke="#d3e3f3" stroke-width="1.51" id="svg_283" class=""/><path d="M293.40112645017933,1702.0608766282642 L236.50484455883583,1869.21858872724 L384.43517747632893,1949.2256987917074 z" fill="#829aca" stroke="#829aca" stroke-width="1.51" id="svg_284" class=""/><path d="M312.74586229323614,160.49530949326322 L300.22868027714065,301.9364505000891 L419.71087224896183,311.9373392581475 z" fill="#d4e4f3" stroke="#d4e4f3" stroke-width="1.51" id="svg_285" class=""/><path d="M218.29803435360608,940.564632621818 L324.1251186715048,1173.4424708451775 L431.0901286272305,967.7099021079764 z" fill="#a2c9e5" stroke="#a2c9e5" stroke-width="1.51" id="svg_286" class=""/><path d="M234.22899328318212,751.9764446127167 L218.29803435360608,940.564632621818 L431.0901286272305,967.7099021079764 z" fill="#aed0e8" stroke="#aed0e8" stroke-width="1.51" id="svg_287" class=""/><path d="M214.8842574401254,-36.665068879887926 L312.74586229323614,160.49530949326322 L379.88347492502146,-96.67040142823828 z" fill="#dfecf7" stroke="#dfecf7" stroke-width="1.51" id="svg_288" class=""/><path d="M384.43517747632893,1949.2256987917074 L255.8495804018927,2060.6641735243584 L401.50406204373195,2056.378078342333 z" fill="#7b8ebc" stroke="#7b8ebc" stroke-width="1.51" id="svg_289" class=""/><path d="M153.43627299747448,443.377591506915 L279.74601879625686,586.2474309077492 L300.22868027714065,301.9364505000891 z" fill="#cfe1f2" stroke="#cfe1f2" stroke-width="1.51" id="svg_290" class=""/><path d="M236.50484455883583,1869.21858872724 L255.8495804018927,2060.6641735243584 L384.43517747632893,1949.2256987917074 z" fill="#7f94c3" stroke="#7f94c3" stroke-width="1.51" id="svg_291" class=""/><path d="M56.71259378219051,1437.751673736721 L112.47095003570718,1714.9191621743391 L243.3323983857971,1372.0315476123371 z" fill="#92b3da" stroke="#92b3da" stroke-width="1.51" id="svg_292" class=""/><path d="M243.3323983857971,1372.0315476123371 L112.47095003570718,1714.9191621743391 L293.40112645017933,1702.0608766282642 z" fill="#8cacd6" stroke="#8cacd6" stroke-width="1.51" id="svg_293" class=""/><path d="M147.74664480834005,221.92934043562198 L300.22868027714065,301.9364505000891 L312.74586229323614,160.49530949326322 z" fill="#d8e7f5" stroke="#d8e7f5" stroke-width="1.51" id="svg_294" class=""/><path d="M79.4711065387279,1163.4415820871195 L243.3323983857971,1372.0315476123371 L324.1251186715048,1173.4424708451775 z" fill="#9ac1e0" stroke="#9ac1e0" stroke-width="1.51" id="svg_295" class=""/><path d="M218.29803435360608,940.564632621818 L79.4711065387279,1163.4415820871195 L324.1251186715048,1173.4424708451775 z" fill="#a3c8e5" stroke="#a3c8e5" stroke-width="1.51" id="svg_296" class=""/><path d="M214.8842574401254,-36.665068879887926 L147.74664480834005,221.92934043562198 L312.74586229323614,160.49530949326322 z" fill="#ddeaf7" stroke="#ddeaf7" stroke-width="1.51" id="svg_297" class=""/><path d="M112.47095003570718,1714.9191621743391 L236.50484455883583,1869.21858872724 L293.40112645017933,1702.0608766282642 z" fill="#87a2cf" stroke="#87a2cf" stroke-width="1.51" id="svg_298" class=""/><path d="M147.74664480834005,221.92934043562198 L153.43627299747448,443.377591506915 L300.22868027714065,301.9364505000891 z" fill="#d6e5f4" stroke="#d6e5f4" stroke-width="1.51" id="svg_299" class=""/><path d="M157.98797554878195,733.4033654906084 L234.22899328318212,751.9764446127167 L279.74601879625686,586.2474309077492 z" fill="#bfdaec" stroke="#bfdaec" stroke-width="1.51" id="svg_300" class=""/><path d="M58.98844505784437,1034.8587266263685 L79.4711065387279,1163.4415820871195 L218.29803435360608,940.564632621818 z" fill="#a8cce7" stroke="#a8cce7" stroke-width="1.51" id="svg_301" class=""/><path d="M112.47095003570718,1714.9191621743391 L120.4364295004952,1834.92982727104 L236.50484455883583,1869.21858872724 z" fill="#88a0ce" stroke="#88a0ce" stroke-width="1.51" id="svg_302" class=""/><path d="M102.22961929526527,569.103050179649 L157.98797554878195,733.4033654906084 L279.74601879625686,586.2474309077492 z" fill="#c5ddee" stroke="#c5ddee" stroke-width="1.51" id="svg_303" class=""/><path d="M153.43627299747448,443.377591506915 L102.22961929526527,569.103050179649 L279.74601879625686,586.2474309077492 z" fill="#cce0f0" stroke="#cce0f0" stroke-width="1.51" id="svg_304" class=""/><path d="M90.8503629169967,-36.665068879887926 L147.74664480834005,221.92934043562198 L214.8842574401254,-36.665068879887926 z" fill="#e3eef9" stroke="#e3eef9" stroke-width="1.51" id="svg_305" class=""/><path d="M157.98797554878195,733.4033654906084 L218.29803435360608,940.564632621818 L234.22899328318212,751.9764446127167 z" fill="#b7d6ea" stroke="#b7d6ea" stroke-width="1.51" id="svg_306" class=""/><path d="M236.50484455883583,1869.21858872724 L120.4364295004952,1834.92982727104 L255.8495804018927,2060.6641735243584 z" fill="#8398c7" stroke="#8398c7" stroke-width="1.51" id="svg_307" class=""/><path d="M120.4364295004952,1834.92982727104 L48.74711431740248,2162.1017594989503 L255.8495804018927,2060.6641735243584 z" fill="#8293bf" stroke="#8293bf" stroke-width="1.51" id="svg_308" class=""/><path d="M79.4711065387279,1163.4415820871195 L56.71259378219051,1437.751673736721 L243.3323983857971,1372.0315476123371 z" fill="#99bedf" stroke="#99bedf" stroke-width="1.51" id="svg_309" class=""/><path d="M157.98797554878195,733.4033654906084 L58.98844505784437,1034.8587266263685 L218.29803435360608,940.564632621818 z" fill="#b2d3e9" stroke="#b2d3e9" stroke-width="1.51" id="svg_310" class=""/><path d="M56.71259378219051,1437.751673736721 L-19.528423952209653,1667.772115172064 L112.47095003570718,1714.9191621743391 z" fill="#92aed8" stroke="#92aed8" stroke-width="1.51" id="svg_311" class=""/><path d="M-121.94173135662788,2006.373634552041 L48.74711431740248,2162.1017594989503 L120.4364295004952,1834.92982727104 z" fill="#8897c2" stroke="#8897c2" stroke-width="1.51" id="svg_312" class=""/><path d="M90.8503629169967,-36.665068879887926 L-90.07981349747556,120.4917544610297 L147.74664480834005,221.92934043562198 z" fill="#e5eff9" stroke="#e5eff9" stroke-width="1.51" id="svg_313" class=""/><path d="M147.74664480834005,221.92934043562198 L-83.25225967051435,374.8000685945145 L153.43627299747448,443.377591506915 z" fill="#dae7f6" stroke="#dae7f6" stroke-width="1.51" id="svg_314" class=""/><path d="M-84.39018530834127,806.2669835850337 L58.98844505784437,1034.8587266263685 L157.98797554878195,733.4033654906084 z" fill="#b9d7eb" stroke="#b9d7eb" stroke-width="1.51" id="svg_315" class=""/><path d="M102.22961929526527,569.103050179649 L-18.390498314382725,610.535303605891 L157.98797554878195,733.4033654906084 z" fill="#c8dfef" stroke="#c8dfef" stroke-width="1.51" id="svg_316" class=""/><path d="M-18.390498314382725,610.535303605891 L-84.39018530834127,806.2669835850337 L157.98797554878195,733.4033654906084 z" fill="#c5deee" stroke="#c5deee" stroke-width="1.51" id="svg_317" class=""/><path d="M-83.25225967051435,374.8000685945145 L102.22961929526527,569.103050179649 L153.43627299747448,443.377591506915 z" fill="#d5e5f4" stroke="#d5e5f4" stroke-width="1.51" id="svg_318" class=""/><path d="M-73.01092893007245,1796.354970632815 L-121.94173135662788,2006.373634552041 L120.4364295004952,1834.92982727104 z" fill="#8ea0cd" stroke="#8ea0cd" stroke-width="1.51" id="svg_319" class=""/><path d="M-90.07981349747556,120.4917544610297 L-83.25225967051435,374.8000685945145 L147.74664480834005,221.92934043562198 z" fill="#e1ecf8" stroke="#e1ecf8" stroke-width="1.51" id="svg_320" class=""/><path d="M-112.83832625401294,1292.02443754787 L56.71259378219051,1437.751673736721 L79.4711065387279,1163.4415820871195 z" fill="#9fc2e1" stroke="#9fc2e1" stroke-width="1.51" id="svg_321" class=""/><path d="M-74.14885456789938,-8.091100999721089 L-90.07981349747556,120.4917544610297 L90.8503629169967,-36.665068879887926 z" fill="#ebf3fb" stroke="#ebf3fb" stroke-width="1.51" id="svg_322" class=""/><path d="M-83.25225967051435,374.8000685945145 L-18.390498314382725,610.535303605891 L102.22961929526527,569.103050179649 z" fill="#d3e5f3" stroke="#d3e5f3" stroke-width="1.51" id="svg_323" class=""/><path d="M-19.528423952209653,1667.772115172064 L-73.01092893007245,1796.354970632815 L112.47095003570718,1714.9191621743391 z" fill="#90a8d3" stroke="#90a8d3" stroke-width="1.51" id="svg_324" class=""/><path d="M112.47095003570718,1714.9191621743391 L-73.01092893007245,1796.354970632815 L120.4364295004952,1834.92982727104 z" fill="#8da4d0" stroke="#8da4d0" stroke-width="1.51" id="svg_325" class=""/><path d="M-84.39018530834127,806.2669835850337 L-131.04513645924283,951.9942197738847 L58.98844505784437,1034.8587266263685 z" fill="#b8d6eb" stroke="#b8d6eb" stroke-width="1.51" id="svg_326" class=""/><path d="M-112.83832625401294,1292.02443754787 L-118.5279544431472,1367.745452430312 L56.71259378219051,1437.751673736721 z" fill="#9fbfe0" stroke="#9fbfe0" stroke-width="1.51" id="svg_327" class=""/><path d="M58.98844505784437,1034.8587266263685 L-112.83832625401294,1292.02443754787 L79.4711065387279,1163.4415820871195 z" fill="#a6c9e5" stroke="#a6c9e5" stroke-width="1.51" id="svg_328" class=""/><path d="M-118.5279544431472,1367.745452430312 L-19.528423952209653,1667.772115172064 L56.71259378219051,1437.751673736721 z" fill="#99b7dc" stroke="#99b7dc" stroke-width="1.51" id="svg_329" class=""/><path d="M-131.04513645924283,951.9942197738847 L-112.83832625401294,1292.02443754787 L58.98844505784437,1034.8587266263685 z" fill="#adcee8" stroke="#adcee8" stroke-width="1.51" id="svg_330" class=""/><path d="M-118.5279544431472,1367.745452430312 L-73.01092893007245,1796.354970632815 L-19.528423952209653,1667.772115172064 z" fill="#96b1d9" stroke="#96b1d9" stroke-width="1.51" id="svg_331" class=""/><path d="M-83.25225967051435,374.8000685945145 L-84.39018530834127,806.2669835850337 L-18.390498314382725,610.535303605891 z" fill="#d0e4f2" stroke="#d0e4f2" stroke-width="1.51" id="svg_332" class=""/><path d="M-131.04513645924283,951.9942197738847 L-84.39018530834127,806.2669835850337 L-83.25225967051435,374.8000685945145 z" fill="#cae1f0" stroke="#cae1f0" stroke-width="1.51" id="svg_333" class=""/><path d="M-118.5279544431472,1367.745452430312 L-121.94173135662788,2006.373634552041 L-73.01092893007245,1796.354970632815 z" fill="#94abd5" stroke="#94abd5" stroke-width="1.51" id="svg_334" class=""/><path d="M-90.07981349747556,120.4917544610297 L-131.04513645924283,951.9942197738847 L-83.25225967051435,374.8000685945145 z" fill="#d9e8f5" stroke="#d9e8f5" stroke-width="1.51" id="svg_335" class=""/><path d="M-131.04513645924283,951.9942197738847 L-118.5279544431472,1367.745452430312 L-112.83832625401294,1292.02443754787 z" fill="#a9c9e5" stroke="#a9c9e5" stroke-width="1.51" id="svg_336" class=""/><path d="M-131.04513645924283,951.9942197738847 L-121.94173135662788,2006.373634552041 L-118.5279544431472,1367.745452430312 z" fill="#9fbdde" stroke="#9fbdde" stroke-width="1.51" id="svg_337" class=""/></g></g></g></svg>
