<?xml version="1.0" encoding="utf-8"?>
<!-- Generator: Adobe Illustrator 21.0.0, SVG Export Plug-In . SVG Version: 6.00 Build 0)  -->
<svg version="1.1" id="Capa_1" xmlns="http://www.w3.org/2000/svg" xmlns:xlink="http://www.w3.org/1999/xlink" x="0px" y="0px"
	 viewBox="0 0 512 512" style="enable-background:new 0 0 512 512;" xml:space="preserve">
<style type="text/css">
	.st0{fill:none;}
	.st1{fill:#1C3D59;}
</style>
<rect id="svgEditorBackground" x="0" class="st0" width="512" height="512"/>
<g>
	<path class="st1" d="M98.1,55.8c1,2.6,2.4,4.6,4.3,6c1.9,1.4,4.5,3,7.7,4.7L350.9,183l0,0l0.2,0.1c1.5,0.5,2.9,1.5,3.9,3.2
		c0,0,0,0.1,0.1,0.1c2.4,3.5,2.4,8.1,0,11.6c0,0,0,0.1-0.1,0.1c-1.1,1.7-2.4,2.7-3.9,3.2L142.6,303.1l-34,16.6c-3,1.5-5.4,3-7,4.3
		c-1.7,1.4-2.9,3.4-3.7,6c-0.8,2.6-1.5,6.1-1.9,10.4c-0.4,4.3-0.6,10.1-0.6,17.3c0,11.8,1.1,19.2,3.2,22.3c2.1,3,6.1,3.2,11.8,0.4
		l295.6-149c1.5-0.5,2.9-1.5,3.9-3.2c1.1-1.7,2.1-3.6,3-5.8s1.5-5.1,1.9-8.6c0.4-3.5,0.5-7.3,0.5-11.3c0-0.4,0-0.8,0-1.2l0,0V201
		l0,0l0,0v-22.4h-0.1c-0.2-6.4-1-11.4-2.1-15.2c-1.5-4.8-3.5-7.8-6-9L110.5,4.7c-2.7-1.5-5.1-2.4-7-2.6c-1.9-0.2-3.5,0.4-4.7,2.1
		c-1.2,1.7-2.1,4.4-2.6,8.3c-0.5,3.9-0.8,9-0.8,15.3c0,7.3,0.2,13.1,0.6,17.6C96.4,49.7,97.1,53.2,98.1,55.8z"/>
	<path class="st1" d="M109.9,509.6c-3.1,1.4-5.5,2.1-7.4,2.4s-3.3-0.7-4.2-2.6c-0.9-1.9-1.5-5-1.9-9.2c-0.4-4.2-0.6-10-0.8-17.3
		c-0.1-6.7-0.1-12.1,0.1-16.3c0.2-4.1,0.5-7.4,0.9-9.7c0.4-2.3,1.1-4.1,2-5.1c0.9-1,2-1.9,3.4-2.8l300.2-150.8
		c3.2-1.6,5.6-2.4,7.4-2.6s3.2,0.7,4.1,2.6c0.9,1.9,1.6,5,1.9,9.1c0.4,4.2,0.6,9.9,0.8,17.2c0.1,6.7,0.1,12-0.1,16.1
		c-0.2,4.1-0.5,7.3-0.9,9.6c-0.4,2.3-1.1,4-2,5.1c-0.9,1-2,1.9-3.4,2.5L109.9,509.6z"/>
</g>
</svg>
