<svg xmlns="http://www.w3.org/2000/svg" xmlns:xlink="http://www.w3.org/1999/xlink" version="1.1" id="Capa_1" x="0px" y="0px" width="512px" height="512px" viewBox="-0.00050354 0 121.507 121.507" style="enable-background:new 0 0 121.506 121.507;" xml:space="preserve" class=""  preserveAspectRatio="xMidYMid meet"><rect id="svgEditorBackground" x="0" y="0" width="121.50599670410156" height="121.50700378417969" style="fill:none;stroke:none;"/><g><g>
	<g>
		<path d="M10.55,85.09663673353195c1.221,2.701999999999998,3.8810000000000002,4.299999999999997,6.663,4.299999999999997c1.0060000000000002,0,2.029,-0.20900000000000318,3.003,-0.6490000000000009l88.917,-40.196c2.688999999999993,-1.2150000000000034,4.382999999999996,-3.9239999999999995,4.296999999999997,-6.872c-0.08499999999999375,-2.9480000000000004,-1.936000000000007,-5.554000000000002,-4.688000000000002,-6.608999999999995l-88.918,-34.107000000000006c-3.776,-1.452,-7.995000000000001,0.43800000000000017,-9.44,4.207c-1.447000000000001,3.7689999999999992,-4.78300406885147,3.011314297914505,29.362746877193445,13.237093868255613l65.21313063025475,23.32495103144646l-58.01094289374353,24.676857163190846c-43.54848561668396,16.850375473022453,-38.062934613704684,15.009097937107086,-36.39893461370468,18.687097937107083Z" data-original="#000000" class="active-path" data-old_color="#000000" fill="#E7EEEF"/>
		<path d="M112.791,70.393c-1.6539999999999964,-3.6809999999999974,3.987371404170986,-6.742910200595858,-39.09147747898102,13.893559140682214l-24.29385730552673,11.377522521018989c-48.0595345852375,19.929514240980154,-42.34666521549225,17.846918338298792,-40.68966521549225,21.5299183382988c1.218,2.709000000000003,3.882999999999999,4.311999999999998,6.67,4.311999999999998c1.0009999999999994,0,2.0200000000000014,-0.20699999999999363,2.9940000000000015,-0.6460000000000008l90.745,-40.806c3.6779999999999973,-1.6530000000000058,5.322999999999993,-5.980000000000004,3.665999999999997,-9.661000000000001Z" data-original="#000000" class="active-path" data-old_color="#000000" fill="#E7EEEF"/>
	</g>
</g></g> </svg>