<svg xmlns="http://www.w3.org/2000/svg" viewBox="0 0 24.41 26.58">
  <path d="M3.63,16.73,0,23l4.24-.22,1.93,3.78,3.36-5.82A10.54,10.54,0,0,1,3.63,16.73Z" transform="translate(0 0)" fill="rgba(255,255,255,.7)"/>
  <path d="M20.75,16.7a10.55,10.55,0,0,1-5.88,4l3.37,5.83,1.93-3.78,4.24.22Z" transform="translate(0 0)" fill="rgba(255,255,255,.7)"/>
  <circle cx="12.38" cy="10.75" r="9.75" fill="rgba(255,255,255,.7)"/>
  <path d="M12.18,0A10.55,10.55,0,1,0,22.73,10.55,10.55,10.55,0,0,0,12.18,0Zm0,19.51a9,9,0,1,1,9-9A9,9,0,0,1,12.18,19.51Z" transform="translate(0 0)" fill="#fff"/>
</svg>
