<?xml version="1.0" encoding="iso-8859-1"?>
<!-- Generator: Adobe Illustrator 19.0.0, SVG Export Plug-In . SVG Version: 6.00 Build 0)  -->
<svg version="1.1" id="Capa_1" xmlns="http://www.w3.org/2000/svg" xmlns:xlink="http://www.w3.org/1999/xlink" x="0px" y="0px"
	 viewBox="0 0 468.293 468.293" style="enable-background:new 0 0 468.293 468.293;" xml:space="preserve">
<path style="fill:#2F4859;" d="M466.663,207.012C453.335,90.514,354.288,0,234.146,0C104.896,0,0,104.896,0,234.147
	c0,129.346,104.896,234.146,234.146,234.146c115.348,0,211.135-83.322,230.503-193.108c2.397-13.328,3.644-27.039,3.644-41.038
	C468.293,224.942,467.813,215.929,466.663,207.012z M300.21,234.147c0,9.972-2.205,19.369-6.137,27.806
	c41.901-2.206,83.61-0.48,124.936,5.273c-14.095,79.104-77.474,140.852-157.344,152.646c1.918-47.462,9.013-94.541,21.286-141.044
	c0-0.095-0.096-0.095-0.096-0.191c-11.889,13.232-29.34,21.574-48.709,21.574c-9.972,0-19.368-2.206-27.806-6.137
	c2.205,41.997,0.383,83.61-5.369,124.936c-79.008-14.095-140.756-77.474-152.55-157.344c47.462,1.918,94.541,8.917,141.14,21.19
	c-13.232-12.081-21.478-29.436-21.478-48.709c0-9.972,2.205-19.465,6.232-27.902c-41.997,2.301-83.706,0.479-125.031-5.274
	c15.725-87.925,92.431-154.755,184.862-154.755c94.445,0,172.398,69.803,185.725,160.508c-47.462-2.014-94.445-9.013-141.044-21.286
	c0,0-0.096,0-0.096,0.096C291.964,197.519,300.21,214.874,300.21,234.147z"/>
<ellipse style="fill:#64798A;" cx="234.159" cy="234.152" rx="77.537" ry="77.537"/>
<ellipse style="fill:#CE412D;" cx="234.159" cy="234.152" rx="40.173" ry="40.173"/>
<g>
</g>
<g>
</g>
<g>
</g>
<g>
</g>
<g>
</g>
<g>
</g>
<g>
</g>
<g>
</g>
<g>
</g>
<g>
</g>
<g>
</g>
<g>
</g>
<g>
</g>
<g>
</g>
<g>
</g>
</svg>
